<?xml version="1.0" encoding="UTF-8"?>
<svg id="facebook" xmlns="http://www.w3.org/2000/svg" viewBox="0 0 511 511">
  <defs>
    <style>
      .cls-1 {
        fill: #fff;
      }
    </style>
  </defs>
  <path class="cls-1" d="M308.24,155.98h34.44v-52.41c0-.29-.21-.53-.5-.58-75.39-11.72-121.71,7.94-121.71,81.3v37.02c0,.54-.44.98-.98.98h-50.19v59.36h50.19c.54,0,.98.44.98.98v129.5h62.1v-129.5c0-.54.44-.98.98-.98h49.62s.07-.03.08-.07l7.19-59.29h-56.89c-.54,0-.98-.44-.98-.98v-37.02c0-20.28,7.89-28.32,25.67-28.32Z"/>
  <path class="cls-1" d="M255.5,25c31.13,0,61.31,6.09,89.71,18.1,27.44,11.61,52.1,28.23,73.27,49.41,21.18,21.18,37.8,45.83,49.41,73.27,12.01,28.4,18.1,58.59,18.1,89.71s-6.09,61.31-18.1,89.71c-11.61,27.44-28.23,52.1-49.41,73.27s-45.83,37.8-73.27,49.41c-28.4,12.01-58.58,18.1-89.71,18.1s-61.31-6.09-89.71-18.1c-27.44-11.61-52.1-28.23-73.27-49.41-21.18-21.18-37.8-45.83-49.41-73.27-12.01-28.4-18.1-58.58-18.1-89.71s6.09-61.31,18.1-89.71c11.61-27.44,28.23-52.1,49.41-73.27,21.18-21.18,45.83-37.8,73.27-49.41,28.4-12.01,58.59-18.1,89.71-18.1M255.5,0C114.39,0,0,114.39,0,255.5s114.39,255.5,255.5,255.5,255.5-114.39,255.5-255.5S396.61,0,255.5,0h0Z"/>
</svg>