<?xml version="1.0" encoding="UTF-8"?>
<svg id="send" xmlns="http://www.w3.org/2000/svg" viewBox="0 0 511.99 512">
  <defs>
    <style>
      .cls-1 {
        fill: #fff;
      }
    </style>
  </defs>
  <path class="cls-1" d="M376.67,512c-14.66,0-28.97-5.76-39.67-16.46l-77.41-77.41c-4.24-4.25-10.08-6.37-16.09-5.78l-116.45,11.24c-10.56,1-20.92-2.7-28.43-10.2-7.5-7.5-11.22-17.86-10.2-28.43l11.23-116.46c.57-5.98-1.53-11.84-5.78-16.09L16.46,175.01h0C1.77,160.32-3.6,138.85,2.44,118.97c6.04-19.88,22.45-34.73,42.83-38.77L444.92,1.08c18.4-3.66,37.34,2.09,50.62,15.38,13.28,13.28,19.03,32.2,15.38,50.62l-79.12,399.66c-4.04,20.38-18.89,36.79-38.76,42.83-5.39,1.64-10.91,2.44-16.37,2.44ZM245.47,379.45c13.96,0,27.33,5.5,37.31,15.49l77.4,77.4c6.2,6.21,14.91,8.39,23.31,5.83,8.39-2.55,14.42-9.21,16.12-17.81L478.74,60.71c1.54-7.78-.79-15.45-6.39-21.05-5.6-5.61-13.26-7.91-21.06-6.4L51.64,112.38c-8.6,1.7-15.26,7.73-17.81,16.13s-.37,17.11,5.83,23.31l77.41,77.4c11.2,11.2,16.75,26.66,15.23,42.43l-11.23,116.46c-.1,1.01.35,1.68.75,2.08.39.4,1.1.81,2.08.75l116.46-11.24c1.71-.17,3.42-.25,5.13-.25Z"/>
</svg>