<?xml version="1.0" encoding="UTF-8"?>
<svg id="X" xmlns="http://www.w3.org/2000/svg" viewBox="0 0 511.99 512">
  <defs>
    <style>
      .cls-1 {
        fill: #fff;
      }
    </style>
  </defs>
  <path class="cls-1" d="M255.5,25c31.13,0,61.31,6.09,89.71,18.1,27.44,11.61,52.1,28.23,73.27,49.41,21.18,21.18,37.8,45.83,49.41,73.27,12.01,28.4,18.1,58.59,18.1,89.71s-6.09,61.31-18.1,89.71c-11.61,27.44-28.23,52.1-49.41,73.27s-45.83,37.8-73.27,49.41c-28.4,12.01-58.58,18.1-89.71,18.1s-61.31-6.09-89.71-18.1c-27.44-11.61-52.1-28.23-73.27-49.41-21.18-21.18-37.8-45.83-49.41-73.27-12.01-28.4-18.1-58.58-18.1-89.71s6.09-61.31,18.1-89.71c11.61-27.44,28.23-52.1,49.41-73.27,21.18-21.18,45.83-37.8,73.27-49.41,28.4-12.01,58.59-18.1,89.71-18.1M255.5,0C114.39,0,0,114.39,0,255.5s114.39,255.5,255.5,255.5,255.5-114.39,255.5-255.5S396.61,0,255.5,0h0Z"/>
  <g>
    <path class="cls-1" d="M275.92,239.07l78.36-84.74h-18.9l-67.91,73.44-54.95-73.44h-64.38l83.74,111.92-84.53,91.41h18.9l74.08-80.11,59.94,80.11h64.38l-88.74-118.6ZM175.79,168.12h29.44l131.03,175.33h-29.44l-131.03-175.33Z"/>
    <path class="cls-1" d="M366.65,358.67h-66.88l-.3-.4-59.22-79.15-73.57,79.55h-21.63l85.52-92.48-84.44-112.86h66.88l54.53,72.88,67.39-72.88h21.63l-79.35,85.8,89.44,119.53ZM300.77,356.67h61.89l-88.04-117.66,77.37-83.67h-16.18l-68.43,74-55.37-74h-61.89l83.05,110.99-83.54,90.34h16.18l74.6-80.67,60.36,80.67ZM338.26,344.45h-31.93l-.3-.4-132.23-176.93h31.93l.3.4,132.23,176.93ZM307.33,342.45h26.94l-129.54-173.33h-26.94l129.54,173.33Z"/>
  </g>
</svg>