<?xml version="1.0" encoding="UTF-8"?>
<svg id="linkedin" xmlns="http://www.w3.org/2000/svg" viewBox="0 0 511.99 512">
  <defs>
    <style>
      .cls-1 {
        fill: #fff;
      }
    </style>
  </defs>
  <path class="cls-1" d="M255.5,25c31.13,0,61.31,6.09,89.71,18.1,27.44,11.61,52.1,28.23,73.27,49.41,21.18,21.18,37.8,45.83,49.41,73.27,12.01,28.4,18.1,58.59,18.1,89.71s-6.09,61.31-18.1,89.71c-11.61,27.44-28.23,52.1-49.41,73.27s-45.83,37.8-73.27,49.41c-28.4,12.01-58.58,18.1-89.71,18.1s-61.31-6.09-89.71-18.1c-27.44-11.61-52.1-28.23-73.27-49.41-21.18-21.18-37.8-45.83-49.41-73.27-12.01-28.4-18.1-58.58-18.1-89.71s6.09-61.31,18.1-89.71c11.61-27.44,28.23-52.1,49.41-73.27,21.18-21.18,45.83-37.8,73.27-49.41,28.4-12.01,58.59-18.1,89.71-18.1M255.5,0C114.39,0,0,114.39,0,255.5s114.39,255.5,255.5,255.5,255.5-114.39,255.5-255.5S396.61,0,255.5,0h0Z"/>
  <g>
    <path class="cls-1" d="M275.93,220.85c22.86-37.43,94.49-32.78,94.49,28.73v92.67h-43.3v-81.13c0-13.3-10.78-24.08-24.08-24.08h0c-13.3,0-24.08,10.78-24.08,24.08v81.13h-44.11v-140.82h41.02l.05,19.42Z"/>
    <rect class="cls-1" x="163.24" y="201.22" width="43.91" height="141.02"/>
    <circle class="cls-1" cx="185.19" cy="157.32" r="25.59" transform="translate(10.39 326.1) rotate(-84.35)"/>
  </g>
</svg>