<?xml version="1.0" encoding="UTF-8"?>
<svg id="Layer_1" data-name="Layer 1" xmlns="http://www.w3.org/2000/svg" viewBox="0 0 359.82 100.53">
  <defs>
    <style>
      .cls-1 {
        fill: #15202e;
      }

      .cls-2 {
        fill: #fff;
      }

      .cls-3 {
        fill: #f39c22;
      }
    </style>
  </defs>
  <g>
    <g>
      <path class="cls-2" d="M125.41,44.42h0c-1.25-.75-2.64-1.41-4.13-1.95-1.43-.51-2.78-.98-4.08-1.4-2.4-.76-4.16-1.42-5.24-1.96-1.05-.53-1.05-.98-1.05-1.15v-3.45c0-1.07.4-1.8,1.24-2.29,2.05-1.18,4.47-1.18,6.52,0,.85.49,1.24,1.22,1.24,2.29v4.97h9.2v-4.97c0-1.43-.37-2.78-1.1-4.02-.72-1.21-1.72-2.27-2.99-3.14-1.23-.84-2.67-1.51-4.29-2-3.23-.97-7.39-.97-10.67,0-1.65.49-3.11,1.16-4.34,2-1.27.87-2.27,1.92-2.99,3.14-.73,1.24-1.1,2.59-1.1,4.02v3.45c0,1.41.43,2.66,1.29,3.71.78.95,1.76,1.78,2.91,2.47,1.11.66,2.37,1.25,3.73,1.74,1.31.48,2.6.91,3.82,1.29,2.74.88,4.77,1.67,6.02,2.36,1.25.69,1.4,1.44,1.4,1.94v5.54c0,.52-.14,1.31-1.39,2.13-1.07.7-2.37,1.04-3.98,1.04s-2.93-.34-4.04-1.04c-1.27-.81-1.42-1.6-1.42-2.12v-4.97h-9.2v4.97c0,1.41.41,2.75,1.22,3.98.78,1.18,1.86,2.23,3.2,3.1,1.31.86,2.87,1.55,4.63,2.05,1.76.5,3.64.76,5.6.76s3.83-.26,5.57-.76,3.28-1.19,4.59-2.05c1.34-.87,2.43-1.91,3.23-3.09.85-1.23,1.27-2.58,1.27-4v-5.54c0-1.59-.47-3.01-1.4-4.2-.86-1.1-1.96-2.06-3.27-2.85Z"/>
      <path class="cls-2" d="M159.86,36.48h0c-1.12-.88-2.48-1.57-4.03-2.07-1.54-.49-3.32-.74-5.3-.74s-3.67.25-5.21.74c-.71.23-1.37.49-1.98.79v-10.57h-8.77v42h8.77v-23.18c0-.55.16-1.37,1.51-2.23,1.16-.74,2.51-1.1,4.12-1.1s3.02.36,4.15,1.09c1.32.86,1.48,1.69,1.48,2.24v23.18h8.77v-23.18c0-1.37-.3-2.66-.89-3.84-.59-1.18-1.47-2.23-2.62-3.13Z"/>
      <path class="cls-2" d="M192.51,36.31c-1.31-.86-2.84-1.54-4.55-2.02-3.34-.95-7.49-.98-10.98,0-1.74.49-3.29,1.17-4.6,2.02-1.34.87-2.42,1.91-3.2,3.07-.81,1.21-1.22,2.55-1.22,3.96v13.79c0,1.4.39,2.74,1.16,3.96.75,1.19,1.78,2.23,3.07,3.09,1.25.84,2.74,1.51,4.43,2,1.68.48,3.49.73,5.39.73s3.72-.25,5.39-.73c1.68-.49,3.17-1.16,4.42-2,1.29-.86,2.32-1.9,3.07-3.09.77-1.23,1.16-2.56,1.16-3.96v-2.2h-8.77v2.2c0,.93-.44,1.66-1.38,2.32-1.03.72-2.31,1.07-3.91,1.07s-2.87-.35-3.91-1.07c-.94-.65-1.38-1.39-1.38-2.32v-1.12l13.75-4.54c1.92-.63,3.48-1.56,4.64-2.78,1.21-1.28,1.82-2.72,1.82-4.28v-1.07c0-1.41-.41-2.74-1.22-3.96-.78-1.16-1.85-2.19-3.2-3.07ZM176.73,48.97v-5.63c0-.55.16-1.38,1.52-2.27,1.16-.76,2.53-1.12,4.2-1.12s3.04.37,4.2,1.12c1.36.89,1.52,1.72,1.52,2.27v1.07c0,.24,0,.79-1.36,1.25l-10.08,3.31Z"/>
      <path class="cls-2" d="M259.66,36.48c-1.12-.88-2.48-1.57-4.03-2.07-1.54-.49-3.32-.74-5.3-.74s-3.67.25-5.21.74c-.71.23-1.37.49-1.98.79v-10.57h-8.77v42h8.77v-23.18c0-.55.16-1.37,1.51-2.23,1.16-.74,2.51-1.1,4.12-1.1s3.02.36,4.15,1.09c1.32.86,1.48,1.69,1.48,2.24v23.18h8.77v-23.18c0-1.37-.3-2.66-.89-3.84-.59-1.18-1.47-2.24-2.62-3.13Z"/>
      <path class="cls-2" d="M292.31,36.3c-1.31-.85-2.84-1.53-4.55-2.02-3.35-.95-7.49-.98-10.98,0-1.74.49-3.29,1.17-4.6,2.02-1.34.87-2.42,1.91-3.2,3.07-.81,1.21-1.22,2.55-1.22,3.96v13.79c0,1.4.39,2.74,1.16,3.96.75,1.19,1.78,2.23,3.07,3.09,1.25.84,2.74,1.51,4.43,2,1.67.48,3.49.73,5.39.73s3.72-.25,5.39-.73c1.68-.49,3.17-1.16,4.42-2,1.29-.86,2.32-1.9,3.07-3.09.77-1.23,1.16-2.56,1.16-3.96v-2.2h-8.77v2.2c0,.93-.44,1.66-1.38,2.32-1.03.72-2.31,1.07-3.91,1.07s-2.87-.35-3.91-1.07c-.94-.65-1.38-1.39-1.38-2.32v-1.12l13.75-4.54c1.92-.63,3.48-1.56,4.63-2.78,1.21-1.28,1.82-2.72,1.82-4.28v-1.07c0-1.41-.41-2.75-1.22-3.96-.78-1.16-1.85-2.19-3.19-3.07ZM276.53,48.97v-5.63c0-.55.16-1.38,1.52-2.27,1.16-.76,2.53-1.12,4.2-1.12s3.04.37,4.2,1.12c1.36.89,1.52,1.72,1.52,2.27v1.07c0,.24,0,.79-1.36,1.25l-10.08,3.31Z"/>
      <path class="cls-2" d="M309.38,34.34c-1.73.48-3.27,1.15-4.56,1.99-1.32.86-2.38,1.88-3.15,3.04-.81,1.22-1.22,2.55-1.22,3.96v23.29h8.77v-23.29c0-.55.16-1.37,1.51-2.23,1.16-.74,2.51-1.1,4.12-1.1h4.69v-6.39h-4.69c-1.9,0-3.74.25-5.47.73Z"/>
      <path class="cls-2" d="M340.86,24.63v10.51c-.62-.3-1.28-.56-1.98-.79-1.54-.49-3.29-.74-5.21-.74s-3.68.25-5.24.74c-1.58.49-2.96,1.19-4.08,2.07-1.14.9-2.02,1.95-2.62,3.13-.59,1.18-.89,2.48-.89,3.84v13.79c0,1.37.41,2.69,1.22,3.92.78,1.18,1.84,2.22,3.16,3.08,1.28.84,2.82,1.51,4.56,2,1.73.48,3.57.73,5.47.73s3.81-.25,5.51-.73c1.71-.49,3.22-1.16,4.51-1.99,1.32-.86,2.38-1.9,3.16-3.08.81-1.23,1.22-2.55,1.22-3.92V24.63h-8.77ZM340.86,43.39v13.79c0,.83-.49,1.55-1.49,2.22-1.12.75-2.48,1.12-4.14,1.12s-2.96-.37-4.11-1.12c-1.02-.66-1.52-1.39-1.52-2.21v-13.79c0-.55.16-1.37,1.51-2.23,1.16-.74,2.51-1.1,4.12-1.1s3.03.36,4.16,1.1c1.32.86,1.48,1.69,1.48,2.24Z"/>
      <path class="cls-2" d="M209.59,75.89v-10.51c.62.3,1.28.56,1.98.79,1.54.49,3.29.74,5.21.74s3.68-.25,5.24-.74c1.58-.49,2.96-1.19,4.08-2.07,1.14-.9,2.02-1.95,2.62-3.13.59-1.18.89-2.48.89-3.84v-13.79c0-1.37-.41-2.69-1.22-3.92-.78-1.18-1.84-2.22-3.16-3.08-1.28-.84-2.82-1.51-4.56-2-1.73-.48-3.57-.73-5.47-.73s-3.81.25-5.51.73c-1.71.49-3.22,1.16-4.51,1.99-1.32.86-2.38,1.9-3.16,3.08-.81,1.23-1.22,2.55-1.22,3.92v32.56h8.77ZM209.59,57.13v-13.79c0-.83.49-1.55,1.49-2.22,1.12-.75,2.48-1.12,4.14-1.12s2.96.37,4.11,1.12c1.02.66,1.52,1.39,1.52,2.21v13.79c0,.55-.16,1.37-1.51,2.23-1.16.74-2.51,1.1-4.12,1.1s-3.03-.36-4.16-1.1c-1.32-.86-1.48-1.69-1.48-2.24Z"/>
    </g>
    <g>
      <path class="cls-2" d="M353.04,63.2v3.42h-1.04v-3.42h-1.22v-.89h3.48v.89h-1.22Z"/>
      <path class="cls-2" d="M358.79,66.62l.02-3.05h-.02l-1.12,3.05h-.73l-1.09-3.05h-.02l.02,3.05h-.98v-4.31h1.48l.98,2.76h.02l.94-2.76h1.5v4.31h-1.02Z"/>
    </g>
  </g>
  <g>
    <path class="cls-3" d="M83.01,72.21l-.08-61.55c0-3.15-3.9-5.31-9.09-6.07L42.76.08C42.04,0,41.81,0,41.51,0h0s0,0,0,0,0,0,0,0h0c-.3,0-.53,0-1.25.08L9.17,4.59C3.98,5.35.08,7.52.08,10.67L0,72.21c-.01,8.45,7.16,16.23,18.73,20.69v.02s18.29,7.02,18.29,7.02c1.46.42,2.97.61,4.48.59h0s0,0,0,0,0,0,0,0h0c1.51.02,3.02-.17,4.48-.59l18.3-7.02v-.02c11.57-4.46,18.74-12.24,18.73-20.69Z"/>
    <g>
      <polygon class="cls-1" points="50.61 21.35 50.65 21.37 50.65 21.37 50.65 21.37 50.65 21.37 50.61 21.35 50.62 21.35 50.61 21.35"/>
      <path class="cls-1" d="M50.61,21.34h0s-.02-.01-.02-.01l-.04-.02c-.09-.05-.19-.1-.28-.14.09.04.19.09.28.14l.04.02h0s0,0,0,0h.02s0,0,0,0Z"/>
      <path class="cls-1" d="M60.18,45.73c.21.04.41.07.61.09.58.08,1.17.14,1.76.17.04,0,.08,0,.13,0,.32,0,.63-.07.92-.19.84-.36,1.62-.85,2.32-1.44.93,0,1.84-.3,2.59-.85,0,0,0,0,.01,0,1.33-.49,2.36-1.57,2.79-2.92l.04-.11-.11-.03c-.3-.08-.61-.17-.9-.27l-.08-.03c-.13-.04-.27-.09-.4-.13t0,0l-.13-.05c-.28-.1-.56-.21-.82-.31-.01,0-.03,0-.04-.01.01,0,.03,0,.04.01-.01,0-.03-.01-.04-.02l-.06-.02h.01s-.01,0-.01,0h-.03s-.01-.02-.01-.02c-1.92-.79-3.73-1.86-5.35-3.16-.03-.02-.06-.05-.09-.07-.01-.01-.03-.02-.04-.03l.04.03c-.08-.07-.15-.13-.23-.19-.02-.02-.05-.04-.07-.06h.02s-.01,0-.02,0l.07.06-.07-.06c-.09-.07-.17-.14-.25-.22-.06-.05-.12-.1-.18-.15-.02-.02-.04-.04-.07-.06-.11-.1-.21-.19-.32-.29-.15-.13-.29-.27-.43-.41-.14-.14-.28-.28-.42-.42-.14-.14-.28-.29-.41-.43-.21-.23-.42-.47-.63-.71-.15-.18-.3-.35-.44-.53-.07-.09-.14-.18-.21-.27-.02-.02-.03-.04-.05-.07-.08-.1-.16-.21-.24-.32-.21-.28-.41-.57-.61-.86-.09-.13-.17-.26-.26-.39-.11-.17-.21-.33-.31-.5-.05-.08-.1-.17-.15-.25-.28-.48-.55-.98-.79-1.48l-.04-.09h0s-.07.03-.07.03h.01s0,0,0,0h0c-.08-.21-.16-.42-.26-.63-.03-.08-.07-.16-.11-.24,0-.02-.02-.04-.03-.07,0,0,0,0,0-.01-.02-.05-.05-.09-.07-.14-.02-.05-.04-.1-.07-.14-.07-.13-.13-.27-.2-.4-.01-.03-.03-.05-.04-.08-.02-.04-.04-.09-.07-.13-.08-.14-.15-.28-.24-.42,0,0,0,0,0-.01-.08-.13-.16-.26-.24-.38-.03-.04-.05-.09-.08-.13-.07-.1-.14-.21-.21-.31-.09-.13-.19-.26-.29-.4-.01-.02-.02-.03-.04-.05-.05-.07-.1-.13-.15-.2-.07-.08-.13-.16-.2-.24-.08-.09-.15-.18-.24-.28-.11-.12-.22-.25-.34-.37-.09-.1-.19-.2-.29-.3-.1-.1-.2-.2-.31-.3-.05-.04-.1-.09-.15-.14,0,0,0,0,0,0-.08-.07-.15-.14-.23-.21-.12-.1-.24-.2-.36-.3-.12-.1-.24-.19-.37-.29-.13-.1-.26-.18-.38-.27-.12-.09-.26-.18-.39-.26-.09-.05-.17-.11-.26-.17-.15-.09-.29-.17-.44-.26-.12-.07-.25-.14-.38-.21h0l-.04-.02h-.02s-.04-.03-.04-.03c-.1-.05-.19-.1-.28-.14-.19-.09-.38-.18-.56-.26-.09-.04-.18-.08-.27-.11h-.03s-.07-.04-.1-.05c-.14-.06-.29-.11-.43-.16-.59-.21-1.19-.37-1.79-.49h-.03c.32-1.19.48-2.42.48-3.65,0-1.54-.25-3.06-.75-4.51l-.11-.31-.1.31c-.35,1.03-.75,2.06-1.2,3.07-.01-.09-.02-.18-.04-.27,0-.02,0-.05,0-.07-.02-.12-.03-.25-.05-.37-.01-.08-.02-.15-.04-.23-.02-.12-.04-.24-.07-.36,0,0,0,0,0,0-.02-.12-.05-.24-.07-.35,0-.01,0-.03,0-.04-.04-.17-.08-.34-.13-.51-.05-.18-.1-.36-.16-.54-.06-.18-.12-.36-.18-.53-.06-.18-.13-.35-.2-.52-.07-.18-.15-.35-.22-.52l-.11-.24-.09.25c-.55,1.4-1.19,2.77-1.91,4.1v.02c-1.26,2.52-2.8,4.88-4.6,7.04-.42.5-.86,1.01-1.32,1.5-.92,1-1.91,1.94-2.94,2.82h0s-.21.18-.21.18c-1.17.99-2.41,1.91-3.7,2.75-.06.04-.13.08-.19.12-.17.11-.33.21-.5.32-.07.04-.15.09-.23.14-.09.06-.19.11-.28.17-.09.06-.19.11-.28.17s-.19.11-.29.17c0,0,0,0,0,0-.14.08-.27.15-.41.23-.05.03-.1.06-.15.08-.01,0-.03.01-.04.02-.39.22-.75.4-1.09.57-.1.05-.2.1-.31.15-.04.02-.09.04-.14.07-.27.13-.54.26-.82.38-.21.1-.42.19-.63.28-.21.09-.43.18-.65.27-.29.12-.58.23-.87.34l-.4.15.42.07c1.44.22,2.87.54,4.27.93h.02s.05.02.08.03c-.03.03-.05.06-.08.09-.22.2-.46.41-.76.66-1.6,1.34-3.31,2.54-5.11,3.58-.31.18-.6.34-.87.48-.45.24-.91.49-1.38.71l-.46.21c-.41.19-.85.39-1.29.57-1.49.62-3.01,1.14-4.57,1.55l-.64.17.66.05c1.96.16,3.9.48,5.81.96.61.15,1.21.32,1.81.51h0s0,0,0,0h0s0,0,0,0h0s0,0,0,0c-.03.03-.06.06-.08.09-.07.08-.15.17-.22.25-.02.02-.03.04-.05.05,0,0,0,.01-.01.01h0s0,0,0,0c0,0,0,0,0,0,0,0,0,0-.01.01-.13.1-.25.2-.38.3-.12.1-.24.21-.37.31,0,0,0,0,0,0-.08.06-.16.13-.23.2-.03.03-.06.05-.09.08-.02.02-.04.04-.07.06-.03.03-.06.05-.08.07-.03.02-.05.05-.08.07-.05.05-.1.1-.16.15l-.12.11s-.04.04-.06.06c-.06.05-.12.11-.18.17-.04.04-.07.07-.11.11h0c-.31.3-.6.62-.89.93h0s0,0,0,0c-1.45,1.61-2.67,3.41-3.61,5.36-.02.05-.04.1-.07.14-.02.03-.03.06-.04.09-.01.03-.02.05-.04.08-.01.03-.03.05-.04.08,0,0,0,.01,0,.01-.03.06-.06.13-.09.19-.02.04-.03.07-.05.11,0,.02-.02.04-.03.07,0,.01,0,.02-.01.03,0,.01-.01.03-.02.04-.01.03-.02.05-.03.08,0,0,0,0,0,0,0,0,0,0,0,0-.01.03-.02.05-.04.08h0s-.03.08-.05.12c.02-.04.03-.08.05-.12,0,0,0-.02.01-.02,0,0,0,.02-.01.03-.02.04-.04.08-.05.12,0,.03-.02.06-.04.09h0s-.02.05-.03.07c-.04.11-.09.22-.13.32-.03.07-.05.14-.08.21l.08-.21-.08.21s-.03.07-.04.1c-.01.04-.03.07-.04.1-.05.12-.09.25-.14.38h0c-.03.08-.05.15-.08.23-.04.11-.07.21-.1.32,0,0,0,.01,0,.02-.04.1-.07.2-.1.31l-.05.15h.15c.22.02.43.04.63.07.12.01.25.03.37.05.02,0,.03,0,.05,0,.18.03.36.05.53.08.34.05.68.1,1.03.17-.35-.06-.69-.12-1.03-.17h0c.34.05.68.11,1.03.17.38.07.76.14,1.13.22.31.07.62.14.93.21.35.08.69.17,1.03.26,1.37.38,2.71.84,4.02,1.38.65.27,1.3.56,1.94.87.42.21.85.42,1.26.64.63.33,1.24.69,1.85,1.06.4.25.8.51,1.2.77.19.13.38.26.57.39l.05.04c.23.16.46.32.68.49.23.17.45.33.67.51h0c.34.27.68.54,1.01.82l.29.25h0c.23.2.46.4.68.6.01,0,.02.02.03.03.18.16.36.33.54.49h0c.2.19.4.39.6.58.2.2.4.4.59.6h0c.09.1.18.18.26.28.03.03.06.06.09.1.06.06.11.12.17.18,0,0,0,0,0,0,.09.1.18.2.27.29l.22.25c.44.49.87,1,1.28,1.52.16.21.32.41.48.62.16.21.32.42.46.63.28.38.55.76.82,1.16.37.55.72,1.11,1.06,1.68,1.36,2.28,2.46,4.71,3.29,7.23.01.04.02.07.03.11.09.28.18.56.26.84,0,.02.01.05.02.07.05.18.1.35.15.53.03.09.05.18.07.27.02.09.05.18.07.27,0,.03.01.05.02.08l.03.11c.03.1.05.2.08.3l.02.09c.02.07.04.15.06.23,0,0,0,0,0,0l.05.23c.04.15.07.3.1.46,0,.03.01.07.02.1,0,0,0,0,0,0,0,.02.01.05.01.07,0,.02.01.04.01.06.03.14.06.28.09.43h0c.03.17.07.34.1.51v.06c.12.59.21,1.18.29,1.77.08.59.14,1.19.19,1.78.01.1.02.2.03.3v.03s0,.02,0,.03c0,.07.01.15.02.23.02.35.04.7.06,1.05l.02.4.19-.34c2.08-3.13,3.83-6.48,5.21-9.98.29-.75.59-1.54.88-2.38,0-.02.01-.04.02-.07.02-.07.04-.13.07-.2v.03l.2-.64.05-.17h0c.03-.08.05-.16.07-.24,0,0,0,0,0,0l.04-.12c.03-.11.07-.22.1-.33,0-.02.01-.04.02-.06.03-.09.05-.18.08-.27,0-.02,0-.03.01-.05,0-.03.01-.05.02-.08,0,0,0,0,0,0,0,0,0,0,0,0,0,0,0,0,0,.01.02-.07.04-.15.06-.22.02-.07.04-.15.06-.23.04-.14.07-.29.11-.43,0-.05.02-.1.03-.14,0,0,0,0,0,0,0,0,0,0,0,0-.02.1-.05.19-.07.29-.03.12-.06.24-.1.37,1.25-4.51,2.03-9.9,1.07-15.37.56,1.19,1.01,2.43,1.35,3.7.22.72.38,1.46.47,2.2.2,1.21.3,2.43.3,3.65,0,.17,0,.34,0,.51l-.02.7.24-.66c1.98-5.55,1.76-11.64-.6-17.04h0l-.05-.11-.05-.11c-.08-.18-.16-.35-.25-.53-.17-.35-.36-.71-.55-1.07-.09-.17-.19-.35-.29-.52h0s-.01-.04-.01-.04c-.1-.18-.22-.37-.35-.59-.04-.07-.09-.13-.13-.21.05.07.09.14.13.21-.04-.07-.09-.14-.14-.21,0,0,0,0,0,0h0s0,0,0,0t0,0h0,0s0-.02,0-.02c0-.02-.02-.04-.03-.07-.3-.46-.56-.88-.82-1.3-.27-.45-.5-.85-.71-1.23l-.13-.24c-.08-.15-.16-.3-.24-.45-.02-.04-.04-.07-.05-.1l-.09-.17s-.04-.07-.05-.1c-.08-.17-.17-.34-.25-.51-.1-.21-.2-.41-.29-.62-.07-.15-.14-.3-.21-.46l-.17-.38c-.03-.08-.07-.16-.1-.24-.06-.13-.11-.26-.16-.39-.06-.14-.12-.28-.17-.42-.17-.43-.33-.85-.48-1.29-.04-.1-.07-.2-.1-.3-.04-.1-.07-.21-.11-.32.01.02.02.05.03.07.02.04.03.07.04.1.02.05.04.1.07.15,0,.02.01.04.02.05.05.12.11.24.17.35,0,.02.02.04.03.06.04.09.08.18.13.27,0,.02.01.03.02.04.07.14.13.27.21.4.02.03.03.06.05.1.07.14.15.27.23.41.02.03.04.06.05.09h0c.1.18.2.35.3.52.06.1.12.2.18.3.12.19.24.37.36.56.13.2.27.4.42.61.11.16.23.32.35.47,0,0,0,.01.02.02.02.04.05.07.07.1.02.03.05.07.07.1.01.01.02.03.04.05.01.02.02.03.04.05l.06.07.08.11.09-.14s.05-.08.07-.12c.11-.16.23-.32.36-.47.01-.01.03-.03.04-.04.13-.14.26-.28.41-.4.07-.06.14-.12.21-.17.08-.06.16-.12.25-.17l.04-.03s.02-.02.04-.02c.37-.24.78-.41,1.21-.52h0s0,0,0,0h.01s.07-.03.07-.03h0s0,0,0,0h.01s0,0,0-.01c0,0,0,0,0,0,.01,0,.02-.01.04-.02h0s0,0,0,0h0c1.45.73,2.98,1.3,4.55,1.69l.31.08h0c.45.1.91.2,1.38.28l.21.04ZM50.22,77.12c.01-.05.03-.1.05-.15-.02.05-.04.1-.05.15h0Z"/>
      <path class="cls-1" d="M50.61,75.87c.02-.07.04-.15.06-.22-.03.11-.06.22-.09.32.01-.03.02-.07.03-.1Z"/>
      <polygon class="cls-1" points="50.58 75.98 50.58 75.97 50.58 75.98 50.58 75.98"/>
      <polygon class="cls-1" points="69.85 40.01 69.71 39.97 69.84 40.01 69.85 40.02 69.85 40.01"/>
    </g>
  </g>
</svg>